<?xml version="1.0" standalone="no"?>
<!DOCTYPE svg PUBLIC "-//W3C//DTD SVG 20010904//EN"
 "http://www.w3.org/TR/2001/REC-SVG-20010904/DTD/svg10.dtd">
<svg version="1.0" xmlns="http://www.w3.org/2000/svg"
 width="1280.000000pt" height="640.000000pt" viewBox="0 0 1280.000000 640.000000"
 preserveAspectRatio="xMidYMid meet">
<metadata>
Created by potrace 1.15, written by Peter Selinger 2001-2017
</metadata>
<g transform="translate(0.000000,640.000000) scale(0.100000,-0.100000)"
fill="#000000" stroke="none">
<path d="M5075 5276 c-186 -82 -334 -170 -481 -287 -72 -58 -75 -59 -98 -43
-94 61 -470 83 -679 39 -92 -19 -151 -43 -192 -78 -85 -71 -176 -88 -259 -48
-24 12 -81 49 -126 81 -122 88 -155 105 -309 159 -171 60 -215 68 -264 47 -84
-35 -78 -151 20 -396 58 -145 94 -218 138 -276 19 -25 35 -49 35 -52 0 -4 -46
-15 -103 -24 -164 -27 -414 -115 -391 -138 6 -6 39 3 92 26 87 37 272 87 360
97 50 6 53 5 63 -20 5 -15 8 -60 7 -102 l-3 -75 -35 -9 c-129 -33 -212 -65
-337 -127 -93 -46 -143 -76 -143 -86 0 -12 26 -2 103 39 153 82 375 162 394
143 3 -3 -9 -54 -26 -114 -20 -68 -34 -141 -37 -193 -2 -46 -8 -108 -12 -138
l-7 -54 -110 -28 c-113 -28 -243 -73 -259 -89 -23 -23 9 -20 81 8 67 26 153
51 264 76 26 6 26 4 33 -59 4 -36 15 -93 26 -128 26 -80 25 -86 -7 -98 -16 -5
-62 -26 -104 -45 l-76 -36 -105 61 c-128 75 -498 252 -668 319 -407 162 -910
279 -1310 304 l-45 3 -3 -52 c-5 -91 52 -266 164 -503 62 -129 65 -137 67
-221 3 -78 7 -96 40 -162 43 -87 130 -175 220 -222 31 -17 57 -36 57 -44 0 -8
-7 -41 -16 -73 -23 -82 -10 -124 65 -199 57 -57 188 -149 301 -211 48 -26 62
-40 71 -68 32 -99 94 -177 173 -218 85 -43 272 -42 386 2 12 5 16 -2 16 -34 2
-67 41 -105 187 -180 69 -36 137 -76 152 -90 31 -29 31 -53 5 -180 -11 -52
-23 -141 -27 -198 l-6 -102 -1179 0 -1178 0 0 -25 0 -25 1184 0 1183 0 33 -66
c55 -113 128 -168 280 -211 58 -16 101 -18 390 -16 179 1 373 4 431 8 100 7
110 5 198 -24 51 -17 96 -31 101 -31 5 0 30 13 57 29 26 16 82 37 124 46 46 9
84 23 94 35 30 33 37 95 20 162 -8 33 -15 62 -15 64 0 2 137 4 305 4 l306 0
51 -41 c200 -158 469 -187 666 -73 24 14 65 45 93 70 l50 44 596 -2 596 -3 14
-54 c19 -77 67 -140 131 -173 99 -50 169 -47 517 27 168 35 357 54 409 41 24
-6 26 -9 20 -46 -7 -41 9 -79 45 -108 62 -49 179 -80 249 -64 28 7 55 7 75 1
58 -18 187 -13 251 10 73 26 169 27 397 5 286 -28 484 -22 714 22 51 10 119
38 251 104 213 106 253 133 289 195 l27 45 1334 0 1334 0 0 25 0 25 -1325 0
-1326 0 7 53 c17 144 39 167 142 149 64 -11 69 -10 186 29 165 55 310 126 441
214 137 93 150 104 158 137 17 65 77 109 207 148 85 25 134 48 176 83 16 13
49 29 72 36 63 18 126 81 180 180 26 47 66 105 89 129 l42 44 65 -6 c70 -8
116 7 135 43 14 25 -47 120 -115 180 -139 122 -312 164 -689 165 -286 1 -472
-18 -675 -71 -74 -19 -162 -41 -195 -48 l-60 -14 133 127 c73 70 132 131 132
135 0 22 -24 49 -60 67 -83 42 -166 45 -630 24 -290 -14 -575 63 -969 260
-189 95 -199 107 -326 401 -101 233 -199 396 -293 488 l-50 49 -30 -44 c-92
-134 -153 -299 -242 -656 -58 -231 -83 -302 -109 -302 -4 0 -25 25 -46 55 -75
109 -226 221 -307 228 -40 3 -34 -15 9 -28 90 -27 176 -88 249 -177 75 -90 75
-89 14 -155 -29 -32 -78 -92 -108 -133 -31 -41 -57 -77 -59 -79 -2 -3 -18 9
-36 26 -90 85 -319 204 -317 166 1 -5 44 -29 98 -55 101 -49 232 -140 232
-162 0 -7 -23 -37 -51 -66 -48 -50 -52 -52 -94 -48 -30 4 -71 23 -132 61 -122
76 -171 99 -303 142 -420 135 -691 158 -716 59 -18 -73 30 -178 106 -229 115
-76 175 -169 265 -408 77 -206 101 -257 144 -302 38 -40 75 -94 69 -100 -2 -1
-34 -8 -73 -14 -112 -20 -185 -43 -185 -59 0 -9 6 -12 18 -7 32 12 177 44 217
47 l39 3 36 -120 c38 -127 57 -169 97 -223 14 -18 23 -34 22 -35 -2 -1 -35
-17 -72 -36 -122 -61 -202 -158 -233 -284 l-17 -67 -573 0 -573 0 18 33 c11
17 34 73 52 122 32 88 33 94 34 250 0 144 -3 171 -29 270 -39 153 -101 320
-223 605 -103 240 -106 246 -163 298 -134 120 -132 215 6 387 128 159 160 238
171 427 6 107 6 107 34 113 32 7 316 -11 390 -25 64 -12 99 -13 99 -1 0 8 -53
19 -170 37 -25 4 -115 10 -200 13 l-154 6 -13 94 c-8 51 -12 95 -10 97 10 10
165 36 271 45 211 18 226 20 226 30 0 24 -409 -14 -494 -47 -10 -4 -16 5 -21
28 -4 18 -23 80 -42 138 -33 102 -68 284 -57 301 3 5 59 9 126 9 153 0 285
-26 436 -86 63 -25 116 -43 119 -40 12 11 -12 26 -94 59 -181 72 -352 104
-505 94 l-88 -6 0 109 0 109 38 10 c121 33 317 61 422 61 31 0 50 4 50 11 0
20 -248 3 -385 -25 -65 -14 -120 -24 -121 -23 -8 8 -4 384 4 438 19 127 -17
209 -91 209 -18 0 -86 -24 -152 -54z m136 -37 c42 -59 51 -113 56 -319 6 -241
3 -257 -57 -277 -128 -41 -475 -242 -488 -283 -8 -22 23 -8 87 39 90 66 139
96 242 147 83 41 185 84 202 84 4 0 7 -47 7 -105 0 -92 -2 -105 -17 -105 -42
0 -234 -53 -230 -63 3 -7 11 -10 18 -9 92 23 224 50 229 47 4 -2 10 -31 13
-65 4 -33 15 -86 26 -117 11 -32 17 -61 15 -65 -7 -11 -48 -10 -78 2 -27 10
-80 -3 -104 -25 -11 -10 -7 -14 25 -20 104 -19 218 -106 211 -162 -3 -23 -15
-29 -112 -64 -149 -53 -443 -196 -430 -209 7 -7 68 18 185 74 148 72 330 146
359 146 5 0 13 -23 19 -50 14 -64 14 -60 -6 -60 -48 0 -233 -34 -222 -41 7 -4
41 -13 75 -20 63 -12 77 -29 26 -29 -38 0 -230 -45 -276 -64 -60 -25 -33 -36
36 -14 69 21 220 52 310 63 l57 6 8 -48 c18 -113 0 -214 -62 -351 -26 -55 -61
-103 -142 -193 -59 -66 -109 -124 -111 -129 -7 -18 88 -187 121 -216 20 -17
39 -43 42 -57 15 -59 -51 -133 -191 -215 -35 -20 -64 -40 -64 -43 0 -4 37 2
83 14 57 14 92 29 116 50 30 26 40 29 83 25 75 -8 138 -77 138 -151 0 -58 -16
-68 -111 -74 -134 -8 -152 -29 -62 -70 75 -34 203 -45 232 -19 18 16 20 14 50
-59 37 -89 84 -265 102 -380 7 -44 12 -141 13 -215 1 -161 -19 -241 -86 -340
-128 -192 -416 -264 -629 -158 -81 41 -237 195 -313 310 -70 107 -121 229
-149 357 -18 81 -21 131 -22 321 l0 225 31 65 c44 90 62 179 74 370 7 105 17
181 29 214 16 47 20 51 49 51 29 0 32 2 32 32 0 36 29 73 58 73 9 0 36 -11 60
-25 41 -23 45 -24 68 -8 34 22 93 4 128 -38 34 -40 37 -123 5 -163 -27 -35
-114 -60 -190 -54 l-58 4 39 -33 c48 -41 56 -67 70 -218 26 -275 69 -402 171
-508 l59 -62 -39 75 c-68 128 -125 367 -138 576 l-6 102 48 24 c27 13 56 35
67 48 26 36 52 151 44 196 -14 74 -95 119 -177 97 -30 -8 -40 -6 -59 9 -34 28
-111 24 -148 -7 -16 -14 -33 -36 -36 -50 -4 -14 -11 -23 -16 -20 -5 3 -19 1
-30 -5 -27 -14 -45 -86 -65 -250 -19 -157 -45 -277 -80 -363 -18 -48 -26 -95
-34 -202 -22 -294 -16 -349 75 -640 59 -189 85 -251 141 -327 l34 -47 -303 -3
c-233 -2 -308 0 -324 10 -44 26 -86 32 -156 20 -87 -15 -148 -3 -269 52 -49
23 -140 54 -202 70 -177 43 -207 66 -207 155 0 49 6 77 45 213 10 34 15 65 11
69 -14 14 -58 -46 -81 -113 -13 -38 -29 -109 -35 -159 -7 -49 -17 -99 -23
-110 -6 -11 -18 -32 -26 -47 -9 -15 -13 -29 -10 -33 4 -3 28 -1 55 5 88 20
188 0 389 -80 109 -43 133 -49 245 -59 234 -20 330 -63 330 -146 0 -29 -16
-65 -29 -65 -5 0 -14 14 -21 30 -17 41 -56 70 -94 69 -29 0 -28 -1 20 -23 58
-27 71 -49 49 -82 -22 -34 -67 -62 -73 -46 -9 27 -57 75 -89 88 -18 8 -47 14
-65 13 -33 -1 -32 -1 11 -15 77 -24 101 -65 63 -109 -37 -44 -44 -46 -113 -22
-63 21 -72 22 -525 19 -394 -3 -470 -1 -529 13 -119 27 -185 78 -229 175 -24
54 -24 57 -15 205 20 315 55 464 131 550 62 71 86 79 213 80 103 0 119 3 261
48 93 29 182 51 230 55 l79 8 -60 23 c-74 29 -205 31 -369 7 -157 -23 -211
-22 -230 6 -49 70 19 124 183 148 114 17 242 7 339 -26 67 -23 89 -25 167 -21
141 7 260 63 179 83 -14 4 -79 4 -143 0 -163 -9 -171 -9 -216 22 -38 26 -45
27 -170 27 -137 0 -168 8 -180 45 -9 28 23 80 64 104 81 47 173 38 258 -26
l56 -43 96 0 c92 0 99 2 176 40 47 23 80 46 80 55 0 22 -69 24 -168 6 -182
-34 -248 -15 -328 93 -27 36 -49 69 -49 73 0 4 56 55 125 114 69 58 125 111
125 115 0 5 -9 9 -20 9 -34 0 -104 38 -143 78 -20 20 -74 100 -121 177 -96
160 -97 142 6 221 47 37 73 48 160 69 257 62 540 77 692 36 44 -11 81 -19 84
-17 10 11 -12 25 -70 42 -94 28 -398 26 -559 -4 -64 -12 -125 -25 -135 -28
-13 -5 -16 -4 -9 4 17 18 236 103 284 109 l44 6 -37 19 c-34 17 -40 18 -99 3
-34 -9 -127 -49 -207 -89 -243 -123 -255 -123 -265 -9 -9 87 8 137 49 153 14
5 94 12 178 16 244 10 492 -19 717 -86 110 -33 121 -35 121 -20 0 13 -170 64
-296 90 -164 32 -295 42 -510 38 l-203 -3 21 22 c56 59 212 129 270 121 41 -6
34 6 -14 28 -85 38 -152 23 -272 -62 -26 -19 -59 -34 -71 -34 -45 0 -42 33 20
229 19 62 38 130 41 151 6 37 8 38 57 44 54 8 335 25 405 26 25 0 42 5 42 12
0 11 -276 6 -431 -8 l-66 -6 -7 66 c-4 37 -9 80 -13 96 -5 29 -5 30 36 30 24
0 40 -4 36 -9 -11 -19 17 -22 68 -7 79 23 229 0 465 -70 67 -20 126 -34 130
-30 11 12 -15 22 -142 60 -108 31 -201 52 -319 71 l-39 6 50 25 c71 35 137 97
156 145 17 41 16 43 -9 95 -34 69 -107 133 -211 184 -77 39 -184 64 -184 44 0
-5 30 -19 66 -32 150 -52 233 -132 250 -240 5 -34 2 -44 -22 -71 -16 -17 -76
-56 -132 -86 -89 -47 -111 -55 -158 -55 l-55 0 -25 57 c-14 31 -56 109 -93
172 -111 189 -157 294 -177 404 l-6 37 48 0 c129 -1 256 -49 441 -168 112 -72
229 -134 296 -158 38 -13 42 -13 114 23 168 83 294 32 412 -167 54 -91 116
-167 142 -175 64 -21 38 69 -67 227 -100 150 -125 238 -70 238 76 0 182 -193
241 -440 19 -79 53 -156 81 -184 49 -49 57 66 24 324 -35 273 -24 328 49 245
36 -42 45 -72 37 -123 -9 -52 -8 -59 12 -132 14 -52 21 -65 37 -65 36 0 55 81
52 216 l-2 117 30 -1 c22 -1 63 21 150 80 197 131 515 323 537 323 4 0 16 -14
29 -31z m3088 -1167 c43 -68 83 -169 142 -361 105 -342 150 -396 484 -571 130
-68 275 -162 317 -207 25 -27 26 -34 30 -163 4 -112 9 -148 30 -210 15 -41 25
-75 25 -75 -47 -9 -372 -164 -421 -200 -31 -23 -8 -32 27 -11 107 62 377 186
406 186 4 0 24 -24 44 -54 20 -30 67 -86 106 -124 l69 -69 -90 -7 c-173 -12
-357 -60 -533 -141 -41 -19 -75 -39 -75 -46 0 -14 13 -10 128 40 173 77 366
121 523 121 l89 0 62 -53 c113 -96 154 -179 146 -299 -11 -144 -142 -338 -320
-472 l-38 -28 -126 36 c-250 71 -414 96 -640 96 -152 0 -184 -4 -184 -21 0 -6
45 -7 113 -3 133 8 312 -8 482 -41 148 -30 309 -77 308 -90 0 -5 -26 -25 -57
-44 l-57 -34 -92 26 c-128 36 -332 72 -525 93 -150 15 -195 14 -165 -4 7 -4
74 -14 149 -21 219 -20 584 -90 584 -111 0 -3 -26 -15 -57 -25 -42 -14 -96
-20 -195 -23 l-137 -4 -68 34 -68 33 -220 5 c-143 4 -227 10 -241 17 -28 16
-84 80 -84 96 0 7 24 22 54 35 29 13 66 36 81 52 l26 28 -33 37 c-42 49 -119
85 -180 85 -60 0 -73 -20 -65 -100 8 -76 -10 -95 -91 -95 -143 1 -263 134
-247 275 6 54 5 58 -40 123 -25 37 -43 67 -39 67 18 0 120 -67 168 -111 51
-47 76 -60 76 -40 0 21 -120 114 -197 154 l-82 42 -41 87 c-60 129 -84 238
-84 383 0 171 34 287 125 430 l31 49 29 -34 c54 -64 118 -174 155 -267 21 -54
42 -93 50 -93 17 0 19 -8 -17 80 -46 114 -108 224 -157 280 l-44 50 18 28 c9
15 60 70 111 122 l94 95 19 -35 c53 -96 130 -406 130 -520 0 -53 11 -100 23
-100 13 0 2 161 -19 272 -20 106 -55 227 -89 309 -39 93 -39 91 3 120 37 25
38 29 55 125 46 259 137 593 197 715 28 59 69 129 75 129 2 0 17 -22 34 -48z
m-7329 -232 c47 -6 119 -20 160 -30 41 -11 126 -31 189 -45 380 -84 728 -231
1131 -477 168 -103 600 -394 600 -404 0 -15 -105 16 -225 66 -306 127 -598
229 -1245 434 -750 237 -855 278 -916 349 -13 16 -24 37 -24 48 0 56 143 82
330 59z m-203 -231 c120 -48 369 -131 688 -230 618 -192 861 -274 1142 -385
242 -96 443 -188 443 -203 0 -21 -59 -41 -122 -41 -87 0 -738 171 -1505 394
-158 47 -331 92 -383 101 -161 29 -248 70 -312 144 -41 48 -58 98 -58 169 0
54 7 82 21 82 5 0 43 -14 86 -31z m2164 -452 c42 -89 75 -163 74 -165 -2 -2
-38 23 -81 56 -44 32 -118 85 -166 117 -49 32 -88 61 -88 65 0 6 167 89 180
89 3 1 39 -72 81 -162z m-1714 -32 c224 -33 633 -136 958 -242 77 -25 258 -71
402 -103 145 -32 280 -67 300 -77 46 -23 64 -49 43 -64 -23 -16 -267 -3 -490
25 -249 31 -556 54 -885 66 -170 6 -278 14 -311 23 -63 18 -147 60 -240 120
-113 73 -146 119 -160 227 l-7 53 141 -6 c78 -4 190 -14 249 -22z m5468 -145
c446 -65 705 -184 760 -349 16 -49 17 -143 1 -158 -2 -3 -46 20 -98 50 -169
100 -309 150 -460 166 -164 17 -399 109 -488 191 -59 55 -53 87 20 108 54 16
113 14 265 -8z m3643 -102 c51 -51 -37 -187 -285 -440 l-115 -118 -60 0 c-57
0 -63 2 -94 36 -65 68 -55 114 25 114 72 0 81 11 43 55 -18 19 -32 40 -32 45
0 26 182 23 262 -5 35 -12 48 -10 48 5 0 18 -122 40 -219 40 l-103 0 19 33
c11 17 44 49 74 70 l54 39 -85 -7 c-77 -5 -83 -5 -60 8 32 19 254 83 390 112
127 28 123 28 138 13z m-3527 -212 c372 -97 528 -174 611 -305 42 -66 37 -72
-33 -44 -33 13 -147 42 -252 64 -106 22 -221 49 -256 60 -146 46 -238 116
-260 196 -15 54 -14 86 2 80 8 -3 92 -26 188 -51z m-5176 14 c115 -11 245 -20
288 -20 43 0 108 -4 145 -10 37 -5 182 -17 322 -25 370 -23 471 -45 478 -107
4 -33 -22 -53 -108 -78 -146 -44 -229 -51 -675 -60 -363 -7 -442 -11 -505 -27
-107 -26 -182 -23 -252 9 -107 50 -218 176 -218 248 0 67 48 88 205 89 61 0
204 -8 320 -19z m9960 -9 c243 -45 375 -110 375 -185 0 -60 5 -59 -246 -45
-294 17 -719 17 -849 0 -150 -19 -293 -48 -424 -86 -118 -34 -307 -109 -369
-145 -35 -21 -102 -27 -102 -10 0 19 70 120 118 172 105 112 268 201 459 249
295 74 779 98 1038 50z m-102 -251 c143 -17 227 -57 227 -110 0 -23 -49 -112
-69 -124 -3 -2 -153 -9 -331 -15 -567 -20 -827 -51 -1120 -137 -93 -27 -215
-54 -243 -54 -53 0 88 152 196 212 168 92 401 160 692 202 225 33 493 44 648
26z m-4440 -44 c183 -47 355 -148 421 -248 33 -50 65 -142 53 -154 -2 -3 -31
4 -63 15 -33 10 -106 27 -164 36 -377 59 -472 100 -534 228 -36 74 -38 117 -6
134 42 22 185 16 293 -11z m-4233 -2 c0 -15 -65 -96 -102 -129 -134 -115 -352
-183 -711 -220 -87 -9 -170 -20 -185 -24 -65 -18 -192 30 -252 95 -50 54 -55
105 -15 152 20 24 36 31 97 40 119 19 261 31 473 42 475 24 588 32 688 49 4 0
7 -2 7 -5z m8665 -252 l110 -7 -73 -38 c-40 -21 -100 -58 -133 -82 -105 -77
-142 -86 -399 -96 -158 -7 -288 -18 -435 -40 -115 -16 -255 -33 -310 -36 -89
-5 -105 -3 -141 15 -84 43 -84 71 1 119 111 62 321 115 590 148 272 34 442 37
790 17z m-8886 -94 c-49 -98 -109 -249 -109 -276 0 -36 -23 -45 -87 -32 -106
22 -218 95 -272 176 -42 64 -38 78 22 81 53 2 130 23 327 87 74 25 141 45 148
45 7 1 -4 -32 -29 -81z m4638 -14 c79 -16 188 -53 180 -60 -2 -3 -26 1 -53 7
-27 6 -139 15 -249 18 -185 6 -200 7 -203 25 -2 10 2 23 10 28 18 13 223 1
315 -18z m120 -79 c141 -24 158 -31 207 -86 49 -54 57 -74 29 -65 -52 16 -121
26 -238 36 -235 19 -314 38 -380 92 l-39 33 39 7 c59 10 289 0 382 -17z m2634
-150 c27 -58 66 -154 87 -213 34 -101 36 -114 37 -232 0 -116 -2 -129 -27
-175 -28 -55 -96 -123 -147 -150 -18 -9 -55 -34 -84 -55 -72 -55 -170 -94
-322 -127 -121 -26 -145 -28 -355 -28 -124 0 -328 4 -455 9 -177 6 -249 5
-310 -5 -44 -7 -109 -13 -144 -13 -56 -1 -65 1 -72 21 -5 14 -2 33 10 57 l18
35 -27 -14 c-26 -13 -45 -47 -52 -90 -5 -30 -66 -33 -101 -5 -36 29 -34 58 8
114 40 52 37 58 -12 20 -22 -16 -33 -33 -33 -50 0 -30 -41 -50 -70 -34 -32 17
-39 40 -24 82 21 61 53 99 102 120 57 26 109 20 285 -34 170 -51 248 -57 337
-26 60 21 67 27 91 73 l25 50 185 1 c193 0 265 11 347 53 l39 20 51 -24 c29
-13 82 -42 119 -64 74 -43 113 -58 113 -43 0 9 -193 121 -234 136 -10 3 -17 8
-15 10 2 2 29 22 59 45 62 47 51 47 197 -14 56 -23 105 -40 108 -37 11 11 4
20 -22 30 -16 6 -65 26 -111 45 l-82 34 57 28 c75 37 168 132 215 221 20 38
50 114 68 169 41 132 56 165 76 165 10 0 33 -37 65 -105z m1073 69 c65 -25
-105 -182 -200 -186 -58 -2 -628 63 -694 80 l-25 6 25 7 c14 4 61 8 105 8 44
1 194 21 335 45 241 42 410 57 454 40z m-3704 -84 c25 -6 56 -13 70 -16 20 -4
-11 -19 -140 -69 -159 -61 -166 -63 -195 -48 -47 24 -65 44 -65 73 0 35 18 58
55 70 34 11 208 5 275 -10z m286 -60 c7 -19 22 -66 34 -105 12 -38 32 -87 45
-107 24 -36 24 -37 5 -43 -11 -3 -51 -7 -89 -9 -133 -4 -91 -33 67 -46 129
-10 171 -24 327 -102 66 -33 159 -76 207 -94 l87 -34 68 16 c98 24 251 24 286
1 34 -22 34 -46 0 -105 -22 -37 -28 -43 -31 -27 -9 48 -75 85 -123 70 -18 -6
-13 -11 35 -42 31 -19 56 -40 56 -47 0 -25 -25 -36 -80 -36 -78 1 -132 15
-235 62 -79 37 -101 42 -178 46 -109 6 -164 -9 -220 -58 l-43 -38 -162 -11
c-170 -11 -312 -35 -449 -77 -118 -35 -161 -39 -226 -20 -167 48 -252 221
-183 371 62 137 302 315 556 413 74 28 198 62 220 59 8 -1 20 -18 26 -37z
m2742 -20 c200 -22 395 -63 376 -79 -18 -15 -174 -71 -199 -71 -15 0 -95 22
-179 50 -84 27 -180 53 -213 56 -76 8 -92 16 -74 38 16 19 140 22 289 6z
m-117 -129 c63 -16 137 -33 164 -37 41 -7 51 -13 53 -31 8 -53 -164 -93 -253
-59 -64 25 -124 102 -109 141 8 20 13 20 145 -14z m-2145 -86 c4 -8 3 -23 0
-32 -6 -15 -8 -15 -23 -1 -16 17 -12 48 7 48 6 0 13 -7 16 -15z m104 -55 c0
-13 -7 -20 -20 -20 -19 0 -27 20 -13 33 13 14 33 6 33 -13z m-115 -82 c7 -18
12 -34 10 -36 -6 -6 -85 38 -85 47 0 11 18 19 43 20 11 1 23 -11 32 -31z"/>
<path d="M4959 5053 c-112 -106 -161 -263 -107 -342 28 -42 67 -66 127 -80
l44 -9 -41 41 c-63 66 -86 120 -86 202 0 83 14 115 87 192 66 70 51 68 -24 -4z"/>
<path d="M4835 4136 c-65 -16 -103 -37 -142 -78 -58 -60 -78 -168 -52 -273
l11 -45 30 25 c25 21 40 25 93 25 136 0 239 40 270 106 14 31 16 52 11 119 -6
67 -4 84 9 95 8 7 15 19 15 26 0 18 -172 18 -245 0z m85 -89 c0 -49 -12 -77
-32 -77 -11 0 -10 73 2 104 16 43 30 30 30 -27z m-145 -72 c20 -69 69 -125
109 -125 66 0 117 58 118 135 1 24 5 42 10 39 28 -18 -21 -150 -68 -181 -34
-22 -153 -22 -224 0 -41 12 -45 16 -42 42 2 16 17 65 34 109 34 88 32 89 63
-19z"/>
<path d="M3595 4029 c-67 -15 -225 -71 -232 -82 -3 -5 3 -17 14 -26 11 -9 32
-41 46 -72 53 -111 172 -194 274 -190 70 2 175 35 214 68 l31 26 74 -36 c131
-65 136 -47 25 90 -116 145 -172 198 -227 217 -51 17 -154 20 -219 5z m206
-60 c12 -24 -2 -92 -22 -105 -26 -16 -40 67 -19 107 14 25 27 24 41 -2z m-221
-56 c1 -102 72 -193 153 -193 72 0 92 19 118 115 l24 86 22 -26 c55 -64 38
-115 -52 -159 -81 -39 -168 -40 -240 -3 -58 29 -85 56 -114 114 -38 77 -21
111 57 112 32 1 32 1 32 -46z"/>
<path d="M4384 3713 c-65 -3 -85 -8 -99 -23 -28 -31 -11 -73 50 -125 29 -26
60 -57 69 -70 15 -23 14 -24 -52 -64 -95 -57 -189 -98 -246 -106 -73 -11 -115
-65 -58 -73 35 -5 82 14 187 78 54 32 120 64 147 70 48 12 49 11 152 -40 71
-36 120 -54 155 -58 28 -2 51 -1 51 4 0 5 -44 26 -98 46 -114 44 -187 98 -176
130 3 12 21 41 40 65 44 57 61 114 46 148 -10 21 -18 25 -49 23 -21 -1 -75 -4
-119 -5z m9 -81 c20 -17 23 -46 5 -40 -7 3 -22 20 -32 38 -20 34 -12 35 27 2z
m117 -1 c0 -20 -27 -48 -37 -37 -8 7 17 56 29 56 4 0 8 -8 8 -19z"/>
<path d="M8354 3773 c25 -80 43 -288 32 -376 -13 -99 -66 -151 -190 -189 -59
-17 -105 -38 -85 -38 43 0 179 25 211 39 170 73 197 265 72 514 -32 63 -52 88
-40 50z"/>
<path d="M7746 2247 c-41 -30 -28 -165 26 -270 27 -55 94 -124 147 -154 25
-14 58 -40 73 -57 l27 -31 20 47 c43 96 37 233 -16 337 -25 48 -37 59 -99 93
-81 43 -149 57 -178 35z m80 -72 c34 -14 35 -16 27 -52 -4 -21 -7 -62 -6 -92
1 -43 6 -59 27 -80 24 -24 28 -25 58 -12 54 21 63 19 66 -15 4 -39 -19 -64
-59 -64 -43 0 -64 14 -100 67 -51 74 -82 197 -63 247 7 19 6 19 50 1z m164
-123 c0 -10 -7 -27 -15 -38 -14 -19 -14 -19 -15 3 0 28 10 53 21 53 5 0 9 -8
9 -18z"/>
<path d="M8833 1775 c-101 -28 -170 -73 -240 -157 -18 -22 -30 -44 -27 -49 3
-5 26 -9 52 -9 45 0 80 -14 182 -71 48 -26 77 -24 146 11 79 39 160 111 174
155 6 19 19 39 28 45 16 9 15 11 -3 26 -75 59 -204 79 -312 49z m141 -39 c6
-23 -7 -76 -19 -76 -3 0 -5 23 -5 50 0 53 14 67 24 26z m126 -26 c25 -47 -58
-145 -152 -176 -86 -28 -129 -23 -197 24 -33 23 -64 42 -70 42 -18 0 -13 16
15 50 25 29 72 60 92 60 5 0 17 -20 27 -45 41 -107 96 -131 174 -75 44 32 61
63 61 111 0 22 5 29 20 29 10 0 24 -9 30 -20z"/>
</g>
</svg>
